<?xml version="1.0" standalone="no"?>
<!DOCTYPE svg PUBLIC "-//W3C//DTD SVG 20010904//EN"
 "http://www.w3.org/TR/2001/REC-SVG-20010904/DTD/svg10.dtd">
<svg version="1.0" xmlns="http://www.w3.org/2000/svg"
 width="1024.000000pt" height="1024.000000pt" viewBox="0 0 1024.000000 1024.000000"
 preserveAspectRatio="xMidYMid meet">
<metadata>
Created by potrace 1.16, written by Peter Selinger 2001-2019
</metadata>
<g transform="translate(0.000000,1024.000000) scale(0.100000,-0.100000)"
fill="#000000" stroke="none">
<path d="M0 5120 l0 -5120 5120 0 5120 0 0 5120 0 5120 -5120 0 -5120 0 0
-5120z m5400 4675 c202 -19 297 -32 425 -59 567 -120 1069 -366 1529 -748 216
-180 519 -519 674 -753 326 -494 534 -1024 596 -1517 43 -338 41 -778 -5 -925
-12 -39 -27 -41 -81 -11 -35 20 -39 26 -34 53 29 162 39 445 23 651 -18 234
-83 569 -153 788 -53 162 -124 328 -221 516 -156 301 -310 526 -543 795 -228
262 -625 559 -985 735 -435 214 -779 310 -1260 350 -137 12 -578 9 -675 -4
-25 -4 -78 -11 -119 -17 -41 -6 -86 -12 -100 -14 -170 -22 -536 -127 -806
-232 -151 -58 -418 -200 -556 -294 -194 -133 -501 -414 -651 -596 -301 -364
-544 -772 -667 -1118 -89 -253 -165 -581 -190 -820 -5 -49 -8 -235 -6 -412 l3
-322 -50 -11 c-28 -6 -53 -8 -55 -6 -16 16 -24 199 -20 456 6 352 29 531 107
835 96 372 187 586 403 950 291 489 747 962 1180 1224 384 232 950 431 1370
482 272 33 339 37 582 32 138 -2 266 -6 285 -8z m-970 -414 c316 -5 615 -10
664 -10 l89 -1 -5 -375 c-3 -206 -2 -375 1 -375 3 -1 37 -5 75 -10 64 -8 72
-12 120 -58 75 -73 153 -96 298 -87 124 8 147 0 198 -71 29 -41 31 -42 65 -33
29 8 42 6 73 -10 46 -25 179 -34 273 -18 65 10 67 10 123 -22 l57 -32 87 35
c101 39 137 50 250 71 l83 16 157 -82 157 -81 108 4 107 3 0 -315 c0 -361 2
-373 79 -540 94 -201 99 -218 105 -325 6 -94 4 -106 -25 -195 -26 -79 -31
-110 -30 -184 0 -49 -4 -107 -10 -128 -5 -22 -13 -82 -17 -134 l-7 -95 -87 -4
c-106 -5 -197 -27 -262 -63 -38 -21 -51 -36 -62 -66 -30 -92 -207 -235 -404
-328 -271 -128 -269 -127 -370 -228 -116 -116 -167 -189 -191 -278 -33 -118
-22 -246 37 -438 21 -66 39 -134 42 -152 l4 -33 -118 6 c-151 8 -265 21 -340
41 -159 41 -396 148 -465 211 -57 52 -150 247 -179 379 -9 39 -24 62 -84 125
-85 88 -166 206 -256 369 -35 63 -81 148 -104 188 -27 49 -66 98 -117 146
l-76 73 -182 8 c-215 8 -195 17 -291 -131 -70 -107 -128 -163 -205 -194 l-55
-23 -63 23 c-34 12 -133 61 -221 109 -177 96 -265 169 -308 256 -14 28 -46
115 -72 195 -25 80 -49 150 -53 155 -5 6 -30 28 -58 50 -276 217 -641 624
-670 746 l-7 27 144 4 c79 3 403 5 720 4 l578 -1 0 942 c0 888 1 942 18 947 9
2 37 3 62 1 25 -3 304 -9 620 -14z m1442 -314 c28 -57 29 -57 73 -57 37 0 45
-3 45 -19 0 -10 -16 -34 -36 -53 l-35 -35 15 -60 c9 -34 16 -64 16 -67 0 -14
-26 -4 -71 30 l-49 36 -43 -36 c-24 -20 -49 -36 -56 -36 -16 0 -14 38 6 95 16
49 16 49 -8 64 -40 26 -59 50 -59 72 0 19 5 20 57 17 l56 -3 20 58 c10 32 24
56 30 54 6 -2 24 -29 39 -60z m484 -19 c16 -36 19 -38 66 -38 60 0 63 -17 12
-68 -35 -35 -35 -36 -25 -84 13 -59 14 -88 3 -88 -5 0 -29 16 -54 35 l-46 36
-37 -25 c-39 -27 -74 -41 -81 -33 -3 3 4 31 15 62 l21 58 -40 43 c-22 24 -40
48 -40 53 0 15 29 21 68 15 l37 -6 24 63 24 62 18 -24 c10 -13 26 -41 35 -61z
m-2979 -571 c40 -37 40 -60 -1 -78 -20 -9 -27 -8 -45 10 -24 24 -53 27 -71 6
-17 -20 -5 -33 39 -45 47 -13 87 -42 107 -81 14 -28 14 -33 -3 -66 -38 -78
-112 -98 -191 -53 -51 29 -60 49 -32 72 18 15 24 15 55 2 54 -22 85 -19 85 10
0 19 -10 28 -55 46 -103 42 -123 104 -56 171 34 34 44 39 85 39 39 0 52 -6 83
-33z m-302 13 c4 -6 4 -29 0 -51 l-7 -41 -44 7 -44 6 0 -125 0 -126 -40 0 -40
0 0 126 0 126 -55 -4 c-39 -2 -56 1 -60 10 -7 19 -6 67 2 75 11 12 281 8 288
-3z m5205 -1724 c0 -23 -47 -228 -65 -286 -13 -41 -29 -95 -37 -119 -7 -25
-18 -46 -24 -48 -20 -7 -93 67 -105 108 -7 22 -18 39 -27 39 -7 0 -44 -28 -80
-63 -37 -35 -101 -90 -142 -122 -104 -82 -279 -238 -440 -391 -75 -71 -196
-183 -270 -249 -74 -66 -169 -152 -210 -192 -69 -68 -78 -73 -117 -73 l-43 0
0 -221 0 -220 51 3 51 3 -1 138 -2 137 137 0 136 0 -7 -135 -7 -135 67 0 67 0
-7 273 c-3 149 -8 282 -11 295 -4 22 -4 22 137 22 l142 0 -7 -295 -7 -295 76
0 77 0 -6 28 c-3 15 -8 210 -11 433 -2 239 -8 416 -14 432 l-11 27 150 0 150
0 -5 -272 c-3 -150 -7 -352 -10 -448 -2 -96 -1 -180 3 -186 5 -8 124 -14 390
-19 l382 -8 0 -32 c0 -19 -2 -39 -5 -47 -4 -11 -186 -13 -1038 -11 -567 1
-1045 6 -1062 10 -25 8 -30 15 -33 45 -3 40 10 48 84 48 l41 0 -1 123 c-1 67
0 231 2 365 l2 242 45 0 c42 0 44 -1 50 -34 4 -18 5 -67 3 -109 l-3 -76 39 22
c39 21 107 83 346 312 140 133 363 336 563 511 223 193 250 216 274 225 36 13
27 26 -23 34 -52 7 -94 24 -94 36 0 12 62 42 160 77 47 17 128 47 180 66 90
33 120 41 120 32z m-6165 -21 c49 -15 97 -14 178 5 72 16 217 12 257 -8 31
-15 35 -22 38 -60 3 -38 -4 -56 -57 -144 -81 -135 -82 -161 -8 -238 114 -120
180 -223 210 -327 40 -134 27 -303 -31 -427 -52 -111 -173 -222 -292 -267
-182 -69 -390 -18 -533 130 -73 75 -117 155 -148 268 -20 71 -21 86 -10 165
23 177 71 278 203 425 43 49 78 95 78 103 0 15 -47 101 -124 225 -61 99 -60
129 5 152 48 17 175 16 234 -2z m1592 -1082 c9 -16 27 -41 40 -56 l23 -28 31
50 c30 47 35 51 70 51 22 0 39 -5 39 -11 0 -6 -20 -39 -45 -73 -25 -35 -45
-71 -45 -80 0 -9 23 -46 50 -83 28 -36 49 -70 47 -77 -2 -6 -20 -12 -39 -14
-34 -3 -38 0 -64 47 -15 28 -32 51 -38 50 -6 0 -30 -25 -54 -55 -41 -52 -61
-62 -96 -48 -25 10 -19 25 34 89 28 33 53 68 56 77 3 12 -14 42 -50 89 -31 39
-56 75 -56 79 0 8 18 13 67 19 7 0 20 -11 30 -26z m481 -51 c52 -111 111 -260
105 -266 -4 -3 -21 -6 -39 -6 -27 0 -34 5 -43 30 -10 30 -11 30 -80 30 -52 0
-71 -4 -71 -13 0 -28 -27 -50 -60 -49 -17 0 -34 3 -36 5 -4 4 97 252 128 314
11 22 33 33 54 26 6 -2 25 -34 42 -71z m-948 27 l0 -41 -44 3 -43 4 -7 -80
c-3 -44 -6 -104 -6 -132 l0 -53 -35 0 -35 0 0 133 0 133 -47 0 -48 -1 -3 38
-3 37 135 0 136 0 0 -41z m298 4 l-3 -38 -77 -3 c-75 -3 -78 -4 -78 -27 0 -24
3 -25 58 -25 63 0 82 -11 82 -47 0 -22 -4 -23 -71 -23 l-70 0 3 -32 3 -33 80
-5 c79 -5 80 -5 83 -34 2 -16 -1 -33 -6 -38 -6 -6 -52 -7 -121 -3 l-111 8 0
168 0 169 116 0 115 0 -3 -37z m1022 19 c45 -25 48 -38 11 -56 -26 -14 -33
-14 -58 -1 -36 19 -54 19 -79 0 -18 -15 -18 -15 -1 -29 11 -8 36 -17 58 -21
26 -5 51 -19 79 -47 54 -54 55 -95 5 -145 -34 -34 -37 -35 -103 -31 -50 2 -76
9 -100 26 -36 26 -37 30 -18 55 12 16 21 17 81 7 112 -18 119 24 11 64 -68 25
-106 58 -106 92 0 13 16 40 38 64 36 37 43 40 93 40 34 0 67 -7 89 -18z m3830
-67 c16 -19 5 -77 -18 -98 -25 -23 -104 -38 -202 -40 -98 -1 -151 13 -180 50
-22 28 -27 89 -7 96 6 3 98 6 203 6 158 1 194 -2 204 -14z m-330 -200 c58 -20
239 -21 266 0 32 24 54 19 54 -14 0 -25 -5 -31 -32 -37 -48 -11 -43 -11 -173
-13 -78 -2 -111 -6 -95 -11 43 -14 214 -11 258 4 48 17 62 8 62 -41 0 -55 -38
-68 -200 -68 -112 0 -143 3 -178 19 -46 21 -45 20 -36 115 8 67 10 69 74 46z
m-4896 -264 c36 -36 47 -108 22 -146 -20 -30 -73 -65 -99 -65 -10 0 -36 17
-58 38 -71 66 -62 140 25 193 38 24 71 18 110 -20z m1006 3 c0 -21 -5 -24 -35
-24 l-35 0 0 -90 c0 -83 -1 -90 -20 -90 -19 0 -20 7 -20 90 l0 90 -30 0 c-25
0 -30 4 -30 24 0 22 5 25 43 28 23 2 61 1 85 -1 37 -3 42 -6 42 -27z m296 2
c28 -28 34 -41 34 -79 0 -85 -70 -149 -128 -116 -32 17 -72 74 -72 101 0 55
65 128 114 128 10 0 33 -15 52 -34z m159 -26 c22 -28 43 -50 47 -50 6 0 14 32
21 90 1 8 9 15 17 15 12 0 15 -19 15 -112 -1 -131 -13 -158 -49 -109 -11 17
-36 46 -53 65 l-32 36 -1 -57 c0 -51 -2 -58 -20 -58 -19 0 -20 7 -20 113 0 63
3 116 6 120 11 11 30 -3 69 -53z m-1335 38 c0 -7 11 -26 24 -43 l25 -30 18 42
c14 32 24 43 41 43 28 0 28 -20 2 -79 -24 -52 -25 -71 -5 -97 8 -10 15 -27 15
-36 0 -31 -26 -20 -56 23 -26 38 -29 40 -41 22 -8 -10 -16 -28 -20 -40 -3 -16
-13 -23 -29 -23 -31 0 -31 20 2 70 l27 40 -27 49 c-32 60 -33 71 -1 71 14 0
25 -6 25 -12z m348 -16 c3 -20 0 -22 -21 -17 -23 6 -24 5 -30 -67 -5 -62 -10
-76 -32 -95 -28 -25 -60 -30 -71 -11 -4 6 2 19 15 29 24 20 41 66 41 113 0 26
-2 28 -35 24 -27 -3 -36 0 -41 14 -10 33 5 39 89 36 77 -3 82 -4 85 -26z m322
4 c0 -13 -7 -30 -17 -37 -9 -8 -28 -39 -42 -69 -14 -30 -27 -58 -29 -62 -2 -5
19 -8 47 -8 39 0 51 -4 51 -15 0 -12 -17 -15 -91 -15 -106 0 -104 -6 -29 104
l50 75 -55 6 c-30 4 -55 9 -55 10 0 29 16 35 91 35 77 0 79 -1 79 -24z m4081
8 c54 -20 245 -23 308 -5 23 7 45 10 48 7 3 -2 6 -20 6 -38 2 -30 -2 -35 -48
-58 -43 -21 -64 -25 -145 -25 -164 0 -261 46 -232 110 14 30 9 29 63 9z
m-6211 -136 c22 -45 40 -90 40 -100 0 -24 -27 -23 -35 2 -5 16 -15 20 -51 20
-37 0 -44 -3 -44 -20 0 -13 -7 -20 -20 -20 -11 0 -20 7 -20 15 0 16 79 185 87
185 2 0 22 -37 43 -82z m118 55 l19 -26 37 28 c20 15 39 25 43 21 4 -3 -8 -27
-25 -51 -38 -54 -39 -58 -9 -82 22 -17 47 -53 47 -67 0 -17 -30 -2 -60 29
l-33 35 -19 -30 c-17 -29 -48 -41 -48 -19 0 6 9 22 20 36 27 34 25 68 -5 107
-30 39 -31 46 -6 46 11 0 28 -12 39 -27z m551 -76 c23 -42 41 -79 41 -82 0
-13 -37 -3 -51 13 -19 22 -89 19 -89 -4 0 -17 -13 -24 -28 -15 -10 6 -4 30 25
100 43 105 40 105 102 -12z m115 71 l25 -33 36 35 c30 29 35 31 35 14 0 -11
-11 -36 -25 -56 l-25 -37 25 -37 c41 -60 33 -69 -21 -27 l-35 26 -15 -21 c-17
-24 -54 -30 -54 -9 0 8 9 22 20 32 11 10 20 24 20 32 0 8 -9 31 -20 53 -11 22
-20 44 -20 50 0 21 29 9 54 -22z m6022 -420 c-3 -13 -6 -38 -6 -55 l0 -33
-3564 0 -3564 0 -4 51 c-1 28 -1 53 1 55 2 2 1611 4 3574 4 l3569 0 -6 -22z
m-518 -280 c2 -11 -19 -41 -52 -76 -31 -33 -56 -62 -56 -65 0 -4 129 -7 288
-7 158 0 293 -4 300 -9 8 -5 12 -22 10 -42 l-3 -34 -218 -3 -218 -2 31 -44
c32 -44 36 -76 12 -84 -15 -5 -77 60 -94 99 -12 26 -44 39 -101 39 -21 0 -18
-6 46 -98 29 -41 30 -82 3 -82 -13 0 -62 50 -118 121 l-36 45 -159 1 c-183 2
-216 10 -211 51 l3 27 135 6 c74 4 154 7 178 8 39 1 44 4 57 35 10 23 38 51
87 86 74 51 110 60 116 28z m-6075 -50 c27 -28 55 -64 63 -80 13 -25 20 -28
64 -28 29 0 50 5 50 11 0 5 -22 34 -50 63 -55 59 -64 86 -26 86 17 0 44 -21
93 -74 l68 -74 127 -4 c70 -2 130 -7 134 -10 3 -4 3 -23 0 -43 l-7 -35 -128 0
-129 0 -72 -77 c-81 -88 -92 -96 -114 -87 -28 11 -17 46 29 95 25 26 45 53 45
59 0 6 -27 10 -65 10 -47 0 -65 -4 -65 -13 0 -7 -30 -40 -66 -72 -54 -47 -74
-59 -110 -63 -61 -7 -58 12 15 90 l59 63 -191 0 -191 0 -10 28 c-17 48 -7 50
243 51 261 1 250 -4 169 84 -32 35 -37 46 -28 58 21 24 42 16 93 -38z m803 2
c98 0 102 -1 106 -23 8 -39 -1 -47 -50 -47 l-47 0 3 -82 c2 -44 1 -96 -3 -115
-5 -30 -9 -33 -39 -33 l-33 0 5 115 5 115 -47 0 -46 0 0 41 c0 38 2 41 23 35
12 -3 68 -6 123 -6z m782 -34 l3 -38 -75 4 c-73 3 -76 3 -76 -19 0 -21 5 -23
54 -23 57 0 66 -7 66 -56 0 -25 -1 -25 -60 -18 -59 6 -60 6 -60 -19 0 -20 6
-26 35 -31 20 -4 40 -4 46 -1 5 4 21 4 35 1 19 -5 24 -13 24 -39 l0 -32 -105
3 -105 3 0 149 0 149 98 3 c53 2 102 3 107 3 6 -1 11 -19 13 -39z m1460 28 c6
-2 12 -17 12 -34 0 -29 -1 -30 -51 -30 l-51 0 7 -115 7 -115 -30 0 c-36 0 -42
21 -42 146 l0 84 -51 0 c-48 0 -51 1 -45 23 3 12 6 30 6 39 0 16 10 17 113 12
61 -3 118 -7 125 -10z m265 2 c18 -7 52 -34 76 -59 35 -36 44 -54 48 -90 5
-43 3 -47 -40 -90 -75 -75 -153 -76 -234 -3 -47 43 -48 45 -48 104 0 71 13 89
88 127 59 29 67 30 110 11z m1495 -72 c46 -47 86 -83 89 -80 3 3 5 42 4 86
l-2 81 28 -7 c15 -4 29 -7 29 -8 1 -1 3 -66 5 -146 l4 -145 -25 -3 c-20 -2
-38 11 -88 68 -35 38 -72 75 -84 81 -20 11 -20 9 -17 -68 l4 -78 -32 -3 -33
-3 0 155 c0 142 2 156 17 156 10 0 55 -39 101 -86z m-3738 21 l0 -55 65 0 65
0 0 55 0 55 35 0 35 0 0 -150 0 -150 -39 0 -39 0 5 60 6 60 -67 0 -66 0 0 -66
c0 -56 -2 -65 -16 -60 -9 3 -25 6 -37 6 -22 0 -22 2 -19 150 l3 150 35 0 34 0
0 -55z m964 30 c33 -35 41 -73 21 -95 -15 -17 -14 -20 9 -43 31 -31 32 -51 6
-94 -22 -37 -36 -42 -142 -45 l-77 -3 -3 153 -3 152 83 0 c76 0 85 -2 106 -25z
m364 0 c17 -14 40 -46 53 -71 19 -40 20 -51 10 -84 -14 -48 -87 -117 -134
-125 -46 -9 -95 15 -143 67 -34 38 -36 44 -32 94 5 58 26 90 83 125 46 29 126
26 163 -6z m361 16 c9 -6 11 -18 7 -34 -5 -21 -14 -26 -53 -32 l-48 -6 3 -108
4 -108 -30 -5 -29 -4 -7 65 c-3 36 -6 90 -6 120 l0 54 -45 -6 -45 -7 0 40 0
40 118 0 c64 0 123 -4 131 -9z m859 -35 c22 -24 45 -54 52 -66 13 -23 13 -23
76 44 56 59 66 66 84 56 19 -10 20 -19 18 -148 l-3 -137 -32 -3 -33 -3 0 83 0
83 -55 -56 -54 -56 -33 45 -33 44 -3 -71 c-2 -39 -4 -71 -6 -71 -2 0 -17 5
-35 11 l-31 11 0 123 c0 68 3 130 6 139 11 28 40 18 82 -28z m656 7 c3 -21 6
-72 6 -114 0 -88 1 -89 98 -89 51 0 52 0 52 -30 l0 -30 -110 0 -110 0 0 150 0
150 29 0 c25 0 29 -4 35 -37z m300 -9 c3 -26 6 -93 6 -149 0 -98 -1 -103 -22
-109 -49 -13 -48 -15 -48 149 l0 155 29 0 c26 0 29 -3 35 -46z m726 17 c0 -36
-28 -45 -107 -35 l-55 7 4 -29 c3 -28 5 -29 56 -27 l52 2 0 -34 0 -35 -55 0
c-51 0 -55 -2 -55 -24 0 -22 4 -24 69 -28 39 -2 72 -6 75 -8 2 -3 7 -17 11
-33 l7 -27 -111 0 -111 0 0 134 c0 74 -3 141 -6 150 -5 14 8 16 110 16 l116 0
0 -29z m1291 -533 c1 -29 -2 -82 -6 -86 -1 -1 -1604 -3 -3561 -3 l-3559 -1 -3
56 -3 56 3566 0 3565 0 1 -22z m-712 -249 c128 -20 238 -67 383 -163 71 -46
98 -72 140 -131 80 -112 138 -204 138 -219 0 -16 -21 -26 -53 -26 -11 0 -65
-20 -118 -46 -133 -62 -145 -62 -171 1 -82 193 -226 313 -404 335 -161 20
-309 -36 -422 -160 -40 -44 -112 -204 -128 -284 -18 -85 -12 -113 34 -167 l24
-29 -31 -17 c-58 -34 -63 -89 -19 -238 91 -313 321 -470 587 -401 133 34 215
101 294 238 26 46 59 120 73 166 l26 83 26 -17 c15 -9 57 -41 93 -70 l66 -54
81 0 81 0 -46 -88 c-123 -233 -256 -370 -439 -453 -111 -51 -181 -63 -364 -63
-195 0 -280 18 -425 89 -165 82 -270 187 -364 365 -64 123 -81 186 -115 423
-1 10 -8 22 -15 26 -13 9 41 21 91 21 23 0 27 -4 25 -22 -2 -19 4 -24 31 -26
28 -3 32 0 32 20 0 35 -52 48 -148 37 -87 -10 -114 1 -72 29 52 35 68 61 75
125 25 223 164 452 347 573 188 125 455 181 687 143z m-4803 -15 c20 -5 21
-12 27 -287 3 -155 4 -283 2 -285 -2 -2 -31 -4 -65 -5 l-61 -2 -24 70 c-13 39
-39 113 -58 165 l-35 95 -156 3 -156 3 0 -274 0 -274 29 -41 c16 -22 34 -43
40 -47 20 -11 12 -34 -26 -76 l-38 -42 0 -271 c0 -246 2 -274 18 -301 27 -45
74 -73 135 -81 l52 -7 0 -58 0 -59 -410 0 -410 0 0 60 0 60 33 0 c49 0 133 45
157 85 20 32 21 45 18 314 l-3 280 -43 44 -44 45 43 14 c31 10 45 21 50 39 4
13 7 151 8 307 l1 283 -156 -3 -156 -3 -49 -140 c-27 -77 -54 -155 -60 -172
-11 -33 -11 -33 -79 -33 -38 0 -71 3 -73 8 -5 10 11 533 18 559 l5 23 498 3
c273 1 598 3 722 4 124 2 234 0 246 -3z m1315 -19 c154 -34 240 -77 317 -159
69 -74 101 -145 107 -241 11 -166 -68 -301 -217 -373 -31 -15 -57 -30 -57 -34
-1 -3 23 -14 52 -24 86 -28 147 -63 196 -112 119 -120 143 -324 60 -499 -65
-137 -190 -229 -384 -284 -78 -22 -97 -23 -612 -27 l-533 -4 0 61 0 61 30 0
c64 0 144 51 176 113 11 21 16 88 21 280 3 139 3 269 -1 290 -5 27 -22 52 -61
90 -30 30 -55 58 -55 63 0 5 19 17 41 28 70 32 71 37 76 310 5 239 5 245 -17
275 -29 41 -96 79 -153 87 l-47 7 0 53 0 54 198 3 c689 10 741 9 863 -18z
m1649 -30 l0 -54 -37 -6 c-64 -11 -75 -16 -119 -57 -26 -24 -48 -55 -54 -77
-5 -20 -10 -138 -10 -262 l0 -226 57 -52 56 -52 -55 -57 -56 -57 -4 -277 -5
-278 268 0 c229 0 270 2 283 16 13 13 44 101 95 274 7 23 13 25 79 28 l72 3 0
-289 c0 -254 -2 -291 -16 -296 -8 -3 -324 -6 -702 -6 l-687 1 3 54 c4 50 6 56
30 61 62 13 116 38 146 69 l33 32 6 174 c11 269 8 431 -6 458 -6 14 -32 38
-56 56 -25 17 -46 36 -48 42 -3 7 19 27 46 45 37 24 54 43 62 68 6 22 9 120 7
260 -3 219 -4 226 -27 259 -28 39 -91 70 -143 71 l-38 0 0 60 0 59 83 4 c45 1
229 4 410 5 l327 2 0 -55z m1732 -416 l3 -52 52 -16 c30 -9 68 -31 88 -50 32
-29 36 -39 33 -75 -3 -34 -7 -42 -27 -44 -40 -6 -68 6 -75 33 -8 30 -47 58
-76 53 -19 -3 -21 -11 -26 -95 l-5 -93 43 -17 c104 -41 143 -68 167 -111 63
-115 2 -243 -134 -283 l-46 -14 3 -55 3 -55 -47 -3 -48 -3 0 58 0 58 -60 18
c-71 21 -140 79 -140 120 0 51 84 80 96 33 8 -34 43 -63 81 -68 l32 -4 3 109
c2 65 -1 112 -7 117 -6 5 -36 18 -68 30 -99 37 -146 106 -133 195 13 80 69
140 146 153 l45 8 -3 52 -4 52 51 0 50 0 3 -51z m-1372 -175 c6 -14 10 -40 10
-57 l0 -32 82 0 83 0 -2 -35 c-2 -45 -20 -56 -99 -65 l-66 -7 7 -60 c7 -55 6
-60 -10 -55 -9 4 -34 7 -56 7 l-39 0 0 55 0 55 -70 0 c-82 0 -127 18 -136 56
-4 14 -3 28 0 32 4 3 54 8 111 10 l105 4 -2 50 c-1 54 9 68 50 68 15 0 26 -8
32 -26z m-1274 -110 c14 -10 31 -29 39 -44 13 -26 12 -31 -15 -68 -37 -52 -81
-64 -115 -32 -29 27 -80 99 -74 104 14 13 107 55 122 56 10 0 29 -7 43 -16z
m-2056 -34 c6 -11 14 -43 17 -70 5 -44 8 -48 24 -40 29 16 96 12 103 -6 10
-25 7 -72 -4 -79 -6 -4 -35 -9 -65 -12 l-55 -6 0 -35 c0 -48 -24 -72 -72 -72
l-38 0 0 55 0 55 -49 0 c-27 0 -62 4 -76 10 -23 9 -26 15 -23 47 3 33 7 38 38
46 19 5 56 7 83 3 l47 -5 0 45 c0 25 5 54 10 65 14 25 46 24 60 -1z m-1319
-91 c8 -15 21 -19 63 -19 60 0 82 -16 72 -53 -5 -22 -12 -25 -88 -30 -46 -4
-125 -7 -176 -7 -90 0 -93 1 -104 26 -22 47 -3 58 103 64 90 5 94 6 91 27 -2
17 1 21 13 17 8 -4 20 -15 26 -25z m-11 -1294 c0 -45 0 -45 -35 -45 l-35 0 0
-100 0 -100 -30 0 -29 0 -3 102 -3 103 -42 -3 -43 -4 0 42 0 41 68 -6 c52 -5
117 1 150 14 1 1 2 -19 2 -44z m2200 0 c0 -45 0 -45 -35 -45 l-35 0 0 -100 0
-100 -27 6 c-16 4 -30 9 -33 11 -3 3 -4 45 -2 95 l3 90 -40 -4 c-43 -4 -51 4
-51 48 0 24 1 24 93 24 50 0 99 5 107 10 8 5 16 10 18 10 1 0 2 -20 2 -45z
m2497 -24 c32 -38 61 -70 66 -70 4 -1 7 28 7 64 0 65 0 65 29 65 24 0 29 -5
35 -31 8 -40 7 -140 -2 -199 -10 -65 -31 -63 -85 7 -74 97 -77 97 -77 14 l0
-71 -29 0 c-16 0 -31 6 -34 13 -2 6 -2 72 1 145 3 100 8 132 18 132 7 0 39
-31 71 -69z m637 53 c3 -9 6 -60 6 -114 l0 -98 -35 -31 c-42 -37 -85 -40 -129
-12 -43 29 -55 58 -56 132 0 100 8 129 36 129 23 0 24 -2 24 -79 0 -104 10
-131 49 -131 41 0 51 23 51 117 0 77 9 103 36 103 6 0 15 -7 18 -16z m-5104
-31 c0 -35 3 -34 -80 -37 -24 -1 -35 -6 -35 -16 0 -11 13 -16 48 -18 45 -3 47
-5 47 -32 0 -27 -2 -29 -47 -32 -40 -3 -48 -6 -48 -23 0 -18 6 -20 63 -19 l62
1 0 -34 0 -33 -90 0 -90 0 0 138 0 137 85 0 85 0 0 -32z m143 2 c35 -44 49
-44 70 0 17 36 45 45 76 26 15 -10 15 -10 -62 -105 -19 -23 -18 -24 16 -69 43
-57 54 -86 36 -98 -26 -16 -38 -9 -59 30 -11 22 -24 42 -28 45 -5 3 -25 -12
-45 -34 -24 -27 -44 -40 -61 -40 -40 0 -33 30 20 90 l47 51 -40 42 c-37 38
-63 76 -63 91 0 3 15 6 33 6 25 0 38 -8 60 -35z m379 -80 c26 -61 50 -122 53
-137 7 -27 5 -28 -28 -28 -31 0 -36 4 -42 31 -7 29 -9 30 -53 27 -43 -3 -47
-5 -50 -30 -3 -22 -9 -28 -27 -28 -54 0 -55 6 -18 93 19 45 42 100 51 122 37
95 55 87 114 -50z m254 94 c41 -25 42 -36 9 -51 -18 -8 -31 -8 -49 0 -19 8
-27 8 -36 -3 -9 -11 -2 -17 33 -33 89 -39 109 -87 59 -135 -41 -40 -84 -52
-119 -34 -15 8 -36 24 -46 35 -18 20 -18 21 1 31 12 6 40 8 65 5 63 -9 68 10
10 40 -93 47 -102 79 -37 135 41 36 65 38 110 10z m902 12 l42 5 0 -38 c0 -36
-2 -38 -30 -38 l-30 0 0 -90 c0 -88 -1 -91 -26 -100 -14 -6 -28 -10 -30 -10
-3 0 -4 45 -2 100 l3 100 -37 0 c-37 0 -38 1 -38 38 l0 38 53 -6 c28 -3 71 -3
95 1z m529 -27 c88 -67 80 -179 -17 -229 -39 -20 -63 -19 -109 5 -94 47 -107
135 -33 214 50 53 99 56 159 10z m210 -29 c20 -25 40 -45 44 -45 4 0 22 23 40
50 26 40 38 50 59 50 l27 0 7 -108 c9 -136 4 -162 -35 -162 l-29 0 0 70 c0 39
-3 70 -6 70 -3 0 -17 -13 -31 -30 -13 -16 -29 -30 -34 -30 -5 0 -21 14 -36 30
-14 17 -30 30 -34 30 -3 0 -4 -29 -1 -65 l5 -65 -32 0 -31 0 0 128 c0 71 3
132 6 135 11 11 42 -11 81 -58z m809 28 c15 -21 42 -53 58 -71 l31 -33 5 68
c5 65 6 68 33 71 l27 3 0 -125 c0 -68 -3 -131 -6 -140 -11 -29 -42 -17 -73 27
-16 23 -44 56 -61 72 l-33 30 6 -78 c5 -77 5 -79 -16 -73 -12 3 -25 6 -29 6
-5 0 -8 63 -8 140 0 132 1 140 19 140 11 0 32 -16 47 -37z m404 20 c0 -10 -3
-29 -7 -42 -6 -22 -9 -23 -59 -17 -49 6 -54 4 -54 -14 0 -17 7 -20 50 -20 l50
0 0 -36 0 -37 -50 6 c-48 6 -50 5 -50 -18 0 -24 3 -25 59 -25 58 0 59 0 63
-30 3 -17 2 -32 -1 -33 -3 -1 -45 -1 -93 1 l-88 3 0 134 0 134 73 4 c39 1 80
4 90 5 10 1 17 -5 17 -15z m345 1 c53 -25 57 -56 9 -75 -18 -6 -31 -5 -48 6
-21 14 -25 13 -49 -6 -34 -26 -35 -59 -3 -96 24 -27 25 -27 57 -12 65 31 110
-18 53 -56 -15 -9 -44 -20 -64 -22 -33 -5 -43 0 -78 32 -44 39 -67 92 -58 130
4 14 21 41 38 61 49 56 86 65 143 38z m262 -1 c46 -26 83 -80 83 -122 0 -64
-61 -129 -129 -138 -35 -5 -44 -1 -81 34 -35 32 -43 47 -47 86 -7 61 9 92 66
129 52 33 65 34 108 11z m574 0 c21 -12 29 -25 29 -45 l0 -27 -47 14 c-25 8
-50 12 -55 9 -19 -12 -6 -32 32 -49 83 -37 98 -72 53 -125 -37 -44 -67 -54
-106 -34 -46 24 -56 34 -50 50 6 17 36 18 64 3 12 -6 27 -8 35 -5 26 10 -1 50
-52 76 -63 32 -69 62 -24 114 37 41 73 47 121 19z m423 4 c16 -12 18 -26 15
-105 l-4 -92 76 0 c42 0 78 -2 81 -5 3 -3 3 -17 0 -30 -4 -25 -6 -25 -107 -25
-85 0 -104 3 -109 16 -3 9 -6 69 -6 135 0 108 2 119 18 119 10 0 26 -6 36 -13z
m390 -8 c5 -4 2 -19 -8 -33 -12 -20 -25 -26 -51 -26 l-34 0 -3 -97 -3 -98 -27
-3 -28 -3 0 100 0 101 -40 0 c-39 0 -40 1 -40 33 0 19 3 36 6 39 8 9 218 -3
228 -13z m175 -83 c27 -58 52 -119 56 -135 6 -29 5 -31 -24 -31 -21 0 -32 6
-36 20 -5 17 -15 20 -61 20 -49 0 -55 -3 -64 -25 -7 -19 -17 -25 -40 -25 -37
0 -38 9 -6 93 45 121 85 187 113 187 7 0 35 -47 62 -104z m171 60 c16 -25 44
-54 60 -66 l30 -21 0 65 0 66 30 0 30 0 0 -139 c0 -152 -8 -175 -43 -125 -12
16 -41 48 -66 72 l-46 43 -3 -61 c-3 -60 -4 -61 -30 -58 l-27 3 -3 133 c-2
126 -2 132 17 132 12 0 32 -17 51 -44z m404 28 c3 -9 6 -27 6 -40 0 -21 -4
-24 -41 -24 l-41 0 4 -96 3 -96 -27 -4 -28 -3 0 100 0 99 -45 0 c-45 0 -45 0
-45 35 l0 34 93 4 c50 1 97 4 103 5 7 1 15 -5 18 -14z m187 -7 c50 -34 45 -52
-15 -52 -59 0 -70 -16 -22 -33 46 -17 86 -56 86 -85 0 -36 -60 -89 -104 -90
-40 -1 -86 34 -86 66 0 16 5 18 28 13 77 -19 84 -19 80 0 -2 11 -25 31 -52 45
-27 15 -53 34 -58 44 -21 36 38 115 87 115 12 0 37 -10 56 -23z m-5419 -4 c32
-36 39 -61 26 -83 -11 -16 -9 -26 7 -56 18 -33 18 -37 3 -62 -24 -39 -55 -52
-130 -52 l-68 0 0 135 0 135 73 0 c58 0 77 -4 89 -17z m286 -8 c35 -30 62 -82
62 -122 0 -33 -66 -105 -113 -122 -33 -13 -51 -5 -108 46 -66 59 -63 131 8
193 45 40 107 42 151 5z m1420 -78 l3 -98 57 2 57 3 0 -35 0 -34 -87 -3 c-66
-2 -89 0 -90 10 -1 7 -2 68 -3 136 l0 123 30 -3 30 -3 3 -98z m233 1 c1 -57 2
-116 3 -133 1 -27 -2 -30 -31 -33 l-33 -3 0 135 0 136 30 0 30 0 1 -102z m36
-398 c14 -34 22 -42 57 -51 60 -15 66 -17 66 -28 0 -14 -41 -41 -64 -41 -17 0
-18 -5 -13 -55 6 -60 0 -66 -39 -36 -21 16 -30 18 -54 9 -17 -5 -33 -14 -36
-19 -3 -5 -10 -9 -16 -9 -7 0 -9 18 -5 53 6 50 5 53 -23 72 -37 25 -35 47 6
56 41 8 54 17 54 36 0 18 28 53 42 53 5 0 17 -18 25 -40z m-224 -66 c46 -8 48
-27 5 -45 -45 -19 -361 -20 -379 -1 -9 8 -10 15 -2 23 19 19 296 36 376 23z
m713 -9 c31 -8 59 -17 62 -20 3 -2 -14 -7 -37 -11 -23 -4 -44 -10 -47 -15 -7
-12 -286 1 -301 14 -20 15 -15 35 10 40 57 11 260 6 313 -8z"/>
<path d="M3880 8296 l0 -936 -552 -1 c-304 -1 -604 -4 -667 -8 l-114 -6 124
-130 c68 -71 185 -183 259 -249 74 -65 159 -141 188 -170 56 -54 55 -51 131
-312 37 -127 74 -166 262 -272 57 -32 124 -70 149 -84 73 -42 82 -42 131 -5
31 24 58 60 92 122 107 196 105 195 404 195 l228 0 101 -97 c108 -105 143
-152 251 -338 153 -263 244 -390 318 -445 48 -36 53 -43 64 -98 11 -56 86
-275 109 -318 25 -46 101 -92 259 -155 94 -37 414 -105 413 -86 0 1 -12 31
-25 67 -18 46 -25 56 -22 33 4 -41 -8 -45 -55 -22 -21 11 -44 19 -53 19 -11 0
-15 11 -15 40 0 33 -3 40 -20 40 -13 0 -20 7 -20 20 0 11 -4 20 -10 20 -5 0
-10 21 -10 48 0 26 -5 78 -10 117 -7 48 -7 71 0 73 6 2 10 37 10 83 0 46 4 79
10 79 6 0 10 9 10 20 0 12 -7 20 -16 20 -12 0 -15 7 -12 28 3 15 2 52 -2 82
l-7 55 -3 -65 -3 -65 -7 50 c-11 65 -12 235 -2 235 8 0 32 49 32 67 0 7 5 13
10 13 6 0 10 9 10 20 0 11 5 20 10 20 6 0 10 9 10 20 0 18 7 20 80 20 l80 0 0
-40 0 -40 40 0 40 0 0 -40 c0 -33 3 -40 20 -40 13 0 20 -7 20 -20 0 -13 7 -20
20 -20 13 0 20 -7 20 -20 0 -13 7 -20 20 -20 12 0 20 -7 20 -17 0 -11 3 -14 8
-7 19 29 140 116 186 133 83 31 288 130 321 155 16 12 39 26 50 31 19 8 19 8
1 13 -20 4 -46 25 -46 37 0 4 8 14 17 23 12 12 18 13 21 4 6 -18 42 -15 42 4
0 16 23 44 35 44 4 0 5 -9 2 -20 -3 -13 0 -20 10 -20 8 0 12 4 9 8 -3 5 2 9
10 9 22 0 -16 -37 -42 -41 -10 -2 -19 -7 -19 -12 0 -5 -4 -16 -10 -24 -7 -12
-6 -13 6 -5 63 46 108 88 103 96 -3 5 0 8 7 7 7 -2 18 7 24 20 5 12 13 22 17
22 4 0 12 17 18 39 8 30 7 45 -5 67 -14 26 -13 30 2 42 10 7 19 9 21 4 3 -10
62 -3 62 8 0 4 11 11 25 14 30 8 33 26 5 26 -11 0 -20 5 -20 10 0 6 9 10 20
10 13 0 20 7 20 20 0 13 7 20 19 20 11 0 22 6 25 13 5 10 7 10 12 0 3 -7 14
-13 25 -13 17 0 19 8 19 100 l0 100 -160 0 c-153 0 -160 1 -160 20 0 17 -7 20
-40 20 -33 0 -40 3 -40 20 0 17 -7 20 -40 20 -33 0 -40 3 -40 20 0 18 -7 20
-80 20 l-80 0 0 40 0 40 -80 0 -80 0 0 -40 0 -40 -80 0 c-73 0 -80 -2 -80 -20
0 -18 -7 -20 -80 -20 l-80 0 0 65 c0 61 -2 65 -25 71 -14 3 -42 3 -63 -1 -20
-3 -63 -9 -94 -12 l-58 -5 0 -54 c0 -47 -2 -54 -20 -54 -11 0 -20 7 -20 15 0
24 -18 18 -22 -7 -3 -13 -6 12 -9 55 l-4 77 178 0 c111 0 177 -4 177 -10 0 -5
9 -10 21 -10 11 0 17 5 14 10 -4 6 8 10 30 10 20 0 34 -3 32 -8 -8 -12 294
-14 346 -1 36 8 59 8 98 -1 37 -9 53 -9 58 -2 5 8 118 12 358 14 193 2 354 5
357 9 3 3 8 31 12 63 l7 58 -844 -3 -844 -3 -8 70 c-4 38 -5 306 -1 595 3 290
3 536 -1 548 -6 19 -13 21 -99 21 -163 0 -288 32 -333 84 -15 18 -33 41 -39
51 -10 18 -12 18 -52 2 -49 -20 -67 -15 -155 41 l-57 37 6 348 7 347 -539 0
c-296 0 -556 3 -576 6 l-38 7 0 -937z m968 -422 c71 -189 122 -340 122 -364 0
-16 -18 -43 -54 -80 -41 -42 -59 -71 -76 -122 -13 -38 -27 -68 -31 -68 -12 0
-51 54 -125 170 -74 117 -74 112 -19 245 18 44 40 104 50 134 30 91 75 183 88
178 7 -2 27 -44 45 -93z m-262 -479 c23 -49 50 -83 96 -125 75 -69 72 -77 -32
-91 -90 -13 -109 -20 -152 -57 l-34 -30 -59 38 c-112 72 -405 294 -405 307 0
7 10 15 23 18 30 7 212 12 386 10 l144 -2 33 -68z m1014 55 c6 -11 5 -23 -3
-33 -19 -26 -363 -269 -433 -306 l-38 -21 -19 21 c-22 23 -51 36 -119 50 -26
6 -48 14 -48 19 0 4 -25 11 -55 15 -70 8 -72 25 -9 85 25 25 66 78 92 118 l46
73 288 -2 c261 -2 290 -4 298 -19z m-840 -293 c0 -18 -7 -55 -16 -81 -14 -40
-14 -51 -3 -79 7 -18 24 -40 36 -50 18 -15 23 -28 23 -65 l0 -47 -152 -110
c-84 -60 -186 -133 -226 -163 -74 -55 -102 -61 -102 -21 0 25 50 185 110 354
21 61 41 122 45 138 4 19 12 27 26 27 24 0 69 22 169 84 41 25 78 46 82 46 4
0 8 -15 8 -33z m116 -8 c35 -37 61 -51 156 -85 40 -15 79 -31 86 -37 24 -19
61 -104 92 -210 16 -57 48 -143 70 -191 42 -91 48 -116 27 -116 -21 0 -154 82
-294 181 -73 52 -148 103 -165 114 -27 16 -33 27 -32 53 0 17 1 97 2 177 2
161 6 168 58 114z m1164 -769 c0 -17 7 -20 40 -20 l40 0 0 -40 c0 -33 3 -40
20 -40 13 0 20 -7 20 -20 0 -13 -7 -20 -20 -20 -17 0 -20 -7 -20 -40 0 -33 -3
-40 -20 -40 -13 0 -20 -7 -20 -20 0 -13 -7 -20 -20 -20 -13 0 -20 -7 -20 -20
0 -17 -7 -20 -40 -20 -33 0 -40 3 -40 20 0 13 -7 20 -20 20 -18 0 -20 7 -20
60 0 53 -2 60 -20 60 -18 0 -20 7 -20 80 l0 80 80 0 c73 0 80 -2 80 -20z"/>
<path d="M1970 6641 c0 -4 21 -39 46 -77 25 -38 52 -84 60 -103 l14 -34 83 6
c45 4 110 7 143 7 l61 0 18 48 c10 26 21 52 25 57 3 6 19 31 33 57 l27 47 -96
0 -95 1 -25 -55 c-21 -46 -28 -53 -43 -46 -9 5 -26 25 -36 45 -10 19 -22 33
-25 31 -4 -2 -24 2 -46 10 -43 16 -144 20 -144 6z"/>
<path d="M2059 6293 c-13 -21 -51 -75 -86 -121 -113 -149 -141 -215 -148 -345
-5 -92 12 -176 52 -249 36 -66 140 -163 210 -196 51 -24 70 -27 158 -27 94 0
103 2 162 33 251 137 318 453 150 714 -18 29 -53 75 -76 102 -24 28 -55 67
-68 88 l-26 38 -153 0 -152 0 -23 -37z m209 -155 c7 -7 12 -24 12 -39 0 -22 6
-28 31 -33 41 -8 99 -66 99 -99 0 -27 -32 -57 -61 -57 -9 0 -22 14 -29 30 -15
36 -37 50 -79 50 -47 0 -80 -17 -87 -45 -10 -39 34 -79 122 -111 94 -34 154
-93 154 -151 0 -68 -71 -153 -127 -153 -20 0 -23 -5 -23 -35 0 -33 -2 -35 -34
-35 -35 0 -46 12 -46 54 0 17 -9 24 -44 34 -53 14 -106 56 -106 85 0 26 28 57
52 57 11 0 34 -16 52 -35 29 -31 39 -35 82 -35 64 0 94 20 94 64 0 40 -13 50
-117 90 -83 31 -117 56 -138 96 -40 77 9 176 95 195 23 5 30 12 30 30 0 13 3
30 6 39 7 19 45 21 62 4z"/>
<path d="M5240 4218 c-45 -48 -10 -119 66 -134 59 -11 116 63 81 106 -41 53
-112 66 -147 28z"/>
<path d="M4303 4230 c-35 -14 -55 -53 -44 -82 13 -35 58 -68 91 -68 34 0 80
50 80 86 0 54 -67 88 -127 64z"/>
<path d="M3965 3005 l0 -227 185 4 c204 5 246 15 302 74 37 40 48 74 48 149 0
108 -33 159 -129 197 -48 19 -81 22 -231 26 l-175 4 0 -227z"/>
<path d="M4018 2513 l-58 -4 0 -264 0 -264 168 -3 c92 -2 169 0 172 3 3 3 25
9 48 13 138 21 241 157 229 303 -7 95 -37 140 -120 183 l-69 34 -156 2 c-86 1
-183 -1 -214 -3z"/>
<path d="M7664 2855 c-32 -22 -49 -71 -36 -100 13 -28 67 -65 95 -65 15 0 17
11 17 90 l0 90 -28 0 c-15 0 -37 -7 -48 -15z"/>
<path d="M7782 2480 c-4 -100 2 -120 34 -120 53 0 94 48 94 108 0 40 -61 92
-107 92 -16 0 -18 -11 -21 -80z"/>
</g>
</svg>
